<svg width="14" height="18" viewBox="0 0 14 18" xmlns="http://www.w3.org/2000/svg"><path d="M5.952 4.612c.106-.047.2-.088.294-.132.015-.008.033-.03.034-.046.02-.336-.046-.648-.283-.904a.453.453 0 00-.295-.156c-.244-.022-.39.12-.488.312-.173.34-.172.693-.046 1.047.046.13.11.25.216.349l.176-.13c-.05-.102-.11-.192-.14-.29-.057-.193-.06-.389.048-.568.086-.145.222-.155.333-.03a.55.55 0 01.064.09c.078.14.095.295.087.458m4.763 7.156c-.222 0-.342.088-.382.277a.983.983 0 00.13.746c.096.153.232.254.42.236.282-.025.51-.168.696-.375.16-.179.135-.391-.055-.54a1.38 1.38 0 00-.19-.127c-.203-.113-.412-.206-.619-.217m-3.433-7.18V4.49a.865.865 0 01.12-.47c.134-.22.38-.24.527-.038a.745.745 0 01.128.49.865.865 0 01-.138.428c.116.047.228.088.336.136.054.024.085.016.117-.034a1.23 1.23 0 00.204-.578c.03-.371-.052-.711-.317-.988a.684.684 0 00-.92-.098c-.354.245-.476.76-.418 1.095.004.016.024.035.04.041.103.04.208.075.32.114m-.58-.023c-.303.001-.504.054-.676.183-.207.157-.405.323-.608.485-.066.052-.137.1-.203.152-.159.123-.196.281-.108.464.076.158.206.265.343.367.18.133.354.276.536.408a1.2 1.2 0 00.277.165c.301.112.602.085.881-.066.307-.166.605-.345.929-.48a.88.88 0 00.476-.458c.078-.172.051-.34-.092-.461a1.149 1.149 0 00-.313-.182c-.307-.12-.615-.235-.901-.407a1.13 1.13 0 00-.542-.17m3.436 7.863c-.024.011-.038.017-.051.025-.188.111-.296.285-.365.484-.125.361-.157.739-.175 1.117a4.63 4.63 0 01-.17 1.078c-.12.415-.252.828-.303 1.262-.057.484.22.913.59 1.095.331.164.673.137 1.01.018.38-.134.69-.373.962-.668.13-.14.263-.284.41-.407.283-.236.614-.395.94-.557.2-.098.398-.2.585-.318.245-.155.3-.349.169-.607a1.886 1.886 0 00-.28-.42 1.578 1.578 0 01-.366-.753c-.04-.18-.09-.36-.155-.532a.56.56 0 00-.444-.368c-.13-.025-.268-.02-.402-.021-.032 0-.07.025-.094.048-.247.24-.533.407-.867.49a.688.688 0 01-.76-.282 1.39 1.39 0 01-.234-.684m-5.99 4.998c.164-.03.33-.047.49-.09a.852.852 0 00.557-.44c.17-.333.157-.664-.021-.994-.174-.324-.402-.61-.631-.894a5.426 5.426 0 01-.753-1.172c-.128-.28-.296-.542-.458-.805a1.334 1.334 0 00-.434-.447c-.336-.205-.656-.184-.919.136a8.899 8.899 0 00-.305.396 1.12 1.12 0 01-.563.42c-.12.04-.24.083-.357.132-.291.122-.433.336-.424.65.003.126.018.253.04.378.055.316.08.627-.049.936a1.137 1.137 0 00-.076.506c.01.18.098.302.26.377.19.088.395.114.6.142.3.04.603.07.903.12.347.057.668.193.984.346.362.177.746.28 1.157.303M5.323 6.279l-.027.02c-.005.063-.008.127-.016.19a6.54 6.54 0 01-.355 1.37c-.256.703-.583 1.374-.888 2.055a5.568 5.568 0 00-.489 1.92c-.004.063-.012.127-.02.212-.028-.038-.045-.059-.059-.08-.297-.442-.355-.931-.279-1.445.057-.386.191-.747.364-1.095.111-.225.224-.45.334-.675.018-.037.027-.076.04-.114-.024.004-.035.015-.042.027-.264.43-.515.865-.695 1.337-.17.445-.292.9-.245 1.385.04.413.2.77.503 1.05.165.15.354.277.54.402.406.273.792.568 1.093.96.122.158.224.327.272.525.077.322-.066.548-.392.61-.047.01-.097.014-.147.02.005.014.006.022.01.028.143.194.285.388.429.581a.202.202 0 00.053.048c.657.435 1.377.565 2.147.435a3.838 3.838 0 001.56-.658.174.174 0 00.061-.086c.047-.154.086-.31.131-.465.105-.366.084-.745.125-1.118.032-.3.067-.6.176-.884.101-.269.258-.494.526-.62.078-.036.115-.078.128-.165.032-.201.124-.375.331-.437a.92.92 0 01.374-.029c.352.048.67.196.966.386.225.143.426.311.353.626.102.034.126.023.139-.072a.676.676 0 000-.196c-.03-.185-.151-.312-.288-.425a2.959 2.959 0 00-.68-.402c-.053-.024-.071-.045-.058-.107.06-.27.066-.545.027-.82a3.457 3.457 0 00-.386-1.152 4.007 4.007 0 00-.784-1.045c-.02-.019-.048-.03-.072-.045l-.024.028c.041.053.077.11.124.158.417.423.691.927.841 1.498.112.426.116.852-.029 1.275-.018.054-.04.07-.096.058a1.535 1.535 0 00-.22-.027c-.055-.002-.083-.019-.095-.08a6.763 6.763 0 00-.641-1.827 17.531 17.531 0 01-1.336-3.34c-.006-.018-.014-.035-.025-.063a1.286 1.286 0 01-.572.419c-.234.084-.442.212-.653.34-.274.166-.567.254-.893.215-.261-.032-.47-.16-.663-.33-.152-.133-.318-.251-.478-.376m7.358 6.39c.096.067.193.123.277.194.18.155.244.373.304.59.052.194.095.391.161.581a.92.92 0 00.162.268c.142.175.285.349.379.556.159.354.079.669-.245.881-.207.136-.431.246-.65.366-.197.107-.399.205-.594.317-.28.159-.499.388-.714.624a2.444 2.444 0 01-1.236.752 1.363 1.363 0 01-1.644-.886c-.015-.044-.037-.062-.085-.06-.436.014-.864-.065-1.294-.12a3.068 3.068 0 00-.854.019c-.361.054-.72.12-1.081.17a.238.238 0 00-.198.129c-.198.326-.501.5-.87.565-.56.096-1.092-.023-1.586-.27-.488-.244-1.002-.36-1.537-.415-.3-.03-.601-.059-.886-.164-.402-.147-.53-.45-.48-.835.023-.164.067-.328.12-.484.077-.224.034-.444.009-.667-.02-.187-.058-.374-.049-.56.019-.376.234-.625.572-.77.122-.054.247-.097.371-.141a.9.9 0 00.436-.318c.132-.175.274-.343.41-.516a.09.09 0 00.018-.063c-.092-.794.104-1.534.416-2.252.365-.838.861-1.596 1.425-2.313.214-.272.432-.54.596-.85.211-.396.339-.817.408-1.261.065-.426.028-.85.003-1.275-.038-.635-.056-1.27.105-1.894.094-.366.25-.701.506-.985a2.1 2.1 0 01.969-.595 3.59 3.59 0 011.248-.14c.539.03 1.036.18 1.443.558.32.296.516.667.647 1.077.126.397.197.807.212 1.224.02.537.022 1.074.03 1.611.008.442.141.848.357 1.23.255.448.583.844.908 1.242.474.58.896 1.195 1.213 1.876.207.445.36.91.43 1.398a3.447 3.447 0 01-.119 1.553c-.006.02-.01.04-.013.053z" fill="#DEBFFF" fill-rule="evenodd"/></svg>