<svg width="14" height="17" viewBox="0 0 14 17" xmlns="http://www.w3.org/2000/svg"><path d="M11.692 9.012c.024 2.58 2.283 3.438 2.308 3.449-.019.06-.361 1.223-1.19 2.423-.717 1.038-1.46 2.073-2.632 2.094-1.151.02-1.522-.677-2.838-.677-1.315 0-1.727.656-2.817.698-1.13.042-1.992-1.122-2.715-2.156C.332 12.727-.796 8.863.72 6.256c.753-1.295 2.097-2.115 3.558-2.136 1.11-.02 2.158.741 2.837.741.678 0 1.953-.916 3.292-.781.56.023 2.134.224 3.144 1.69-.08.05-1.877 1.087-1.858 3.242M9.53 2.68c.6-.72 1.004-1.723.894-2.72-.865.034-1.912.57-2.533 1.29-.556.638-1.043 1.659-.912 2.636.965.074 1.95-.485 2.55-1.206" fill="#DEBFFF" fill-rule="evenodd"/></svg>